<svg id="Calque_1" data-name="Calque 1" xmlns="http://www.w3.org/2000/svg" viewBox="0 0 64.57 59.18"><defs><style>.cls-1,.cls-2{fill:#62ebca;}.cls-1{stroke:#62ebca;stroke-linecap:round;stroke-linejoin:round;stroke-width:4px;}</style></defs><path class="cls-1" d="M7190.5,7223.16c-9.88-2.56-16.73-11.49-16.73-22.21a22.66,22.66,0,0,1,14.32-21.53c0-.18-.05-.35-.07-.52-.16-1.37-.3-2.75-.36-4.12-11,3.59-18.45,13.93-18.45,26.17,0,13.2,8.76,24.26,21.39,26.87C7190.57,7226.27,7190.53,7224.71,7190.5,7223.16Z" transform="translate(-7167.21 -7170.64)"/><polygon class="cls-2" points="17.89 0 30.29 3.52 21.69 13.48 17.89 0"/><path class="cls-1" d="M7210.4,7221.8A23.22,23.22,0,0,0,7209,7178l0-.51c0-1.38,0-2.77,0-4.14,11.3,2.62,19.59,12.27,20.65,24.46,1.15,13.15-6.61,24.94-19,28.63C7210.61,7224.9,7210.5,7223.35,7210.4,7221.8Z" transform="translate(-7167.21 -7170.64)"/><polygon class="cls-2" points="43.12 46.33 36.72 57.91 49.56 58.72 43.12 46.33"/></svg>